<svg xmlns="http://www.w3.org/2000/svg" xmlns:xlink="http://www.w3.org/1999/xlink" viewBox="0 0 424.95 107.38"><defs><style>.cls-1{fill:none;}.cls-2{clip-path:url(#clip-path);}.cls-3{fill:#000078;}</style><clipPath id="clip-path" transform="translate(13.22 13.88)"><path class="cls-1" d="M0,26.76V81H52.88V26.44A26.44,26.44,0,1,0,0,26.76Z"/></clipPath></defs><g id="Calque_2" data-name="Calque 2"><g id="Calque_1-2" data-name="Calque 1"><g id="logo3-1"><g class="cls-2"><path class="cls-3" d="M136.17,93.5c-5.79-4.22-10.55-9.69-18-10.13C111,83,107.7,86.49,102.08,90.08c-16.18,10.31-20.55-9.91-35-10.21-5.52-.11-7.93,3.41-12.23,5.9-5.85,3.4-13.16,1.52-19.36.1A193.48,193.48,0,0,0,11.2,82C.85,81-5.29,80-13.22,87.66V82c13.35-12.34,33-6.89,48.75-2.25,6.23,1.83,13.34,3.72,19.39.42,4.38-2.4,7.06-5.88,12.56-5.75,14.35.33,18.53,20.25,34.6,10,5.62-3.58,8.93-7.17,16.08-6.7,7.41.49,12.23,6,18,10.11Z" transform="translate(13.22 13.88)"/><path class="cls-3" d="M136.17,86.38c-5.27-3.75-10-9.06-16.7-10-8.07-1.2-11.86,3.24-18,7.08C86.13,93,81.31,73.6,67.66,73.14c-5.87-.2-8.26,3.3-13,5.7-5.78,2.94-12.19,1.38-18.12-.44C20.08,73.34,1,67.57-13.22,80.54v-5.7c15.36-13.4,32.51-9,49.84-2.54,6,2.2,12.21,3.75,18.15.89,4.8-2.32,7.45-5.76,13.3-5.55,13.53.49,18.15,19.57,33.38,10.08,6.15-3.84,10-8.33,18-7.06,6.61,1,11.41,6.36,16.68,10Z" transform="translate(13.22 13.88)"/><path class="cls-3" d="M136.17,79.26c-5.36-3.7-10.38-9.17-17.1-10.07-8-1.07-12,3.91-18.29,7.55-15.06,8.78-19.4-10.25-32.73-10.62-5.73-.16-8.76,3.6-13.51,5.81-6.28,2.91-12.81.84-18.91-1.49-17.07-6.52-33.71-9.92-48.85,3V67.72c8-6.58,16.37-10.36,26.79-10.93,8.64-.47,14.87,3.6,22.34,7.21,6,2.89,12.23,5.21,18.63,2.23,4.75-2.21,7.78-6,13.51-5.81C81.39,60.8,85.73,79.81,100.78,71c6.23-3.63,10.3-8.65,18.28-7.53,6.64.93,11.75,6.49,17.11,10.06Z" transform="translate(13.22 13.88)"/><path class="cls-3" d="M136.16,72.14c-5.37-3.54-10.49-9.12-17.11-10.06C111.07,61,107,66,100.77,69.61,85.71,78.4,81.37,59.37,68.05,59c-5.73-.16-8.75,3.6-13.5,5.81-6.46,3-12.6.6-18.55-2.45-7.38-3.77-13.53-8.17-22.22-7.56-10.44.74-19,5-27,11.5V60.61c8.17-6.47,17.3-11.88,28-12.68,8.1-.61,13.84,3.77,20.41,7.82s13,6.64,20.18,2.94c4.52-2.35,7.06-5.5,12.7-5.29C81.43,53.9,86.33,73,101.4,63.46c5.73-3.63,9.79-8,17.21-7.11,6.87.84,12,6.52,17.56,10.1Z" transform="translate(13.22 13.88)"/><path class="cls-3" d="M136.17,65c-5.58-3.58-10.7-9.25-17.56-10.1C111.19,54,107.13,58.4,101.4,62c-15.08,9.55-20-9.61-33.46-10.1-5.65-.21-8.13,3-12.64,5.32-7.14,3.76-13.78,1-20.16-3.06-6.54-4.15-12.26-8.68-20.42-8-10.67.84-19.81,6.5-27.94,13V53.49c7.79-6.94,16.71-13.76,27.37-15.25,9.13-1.27,15.08,5.2,22,10,5.62,3.93,11.61,7.11,18.28,3.69,4.6-2.36,7.19-6.21,12.94-6.09,13.55.29,18.21,19.86,33.45,11,6.21-3.61,10.31-8.69,18.27-7.53,6.54,1,11.75,6.64,17.12,10.06Z" transform="translate(13.22 13.88)"/><path class="cls-3" d="M136.16,57.9c-5.37-3.41-10.58-9.1-17.12-10-8-1.17-12.07,3.91-18.27,7.53-15.27,8.9-20-10.77-33.58-11-5.75-.11-8.27,3.76-12.84,6.14-6.69,3.49-12.66.17-18.25-3.85-6.81-4.9-12.78-11.67-22-10.31C3.44,37.91-5.48,45-13.22,52.06V46.37c7.69-7.14,16.64-15.24,27.43-16.94C23.63,28,29.46,35.35,36.13,40.59c5.44,4.27,11.49,7.89,18.21,4.13,4.6-2.57,6.81-6.68,12.73-6.57,13.73.27,18.18,20.58,33.71,11.53,6.2-3.61,10.32-8.69,18.27-7.53,6.51,1,11.76,6.67,17.12,10.06Z" transform="translate(13.22 13.88)"/><path class="cls-3" d="M136.17,50.78c-5.37-3.38-10.62-9.1-17.13-10.06-8-1.16-12.06,3.92-18.26,7.54C85,57.43,80.9,36.51,67.07,36.28c-6-.11-8.14,4.23-12.73,6.92-6.76,4-12.8.13-18.18-4.28C29.6,33.56,23.74,25.7,14.27,27.33,3.43,29.18-5.53,37.72-13.22,45v-5.7c7.71-7.74,16.65-18.11,27.76-20.71,9.67-2.25,15.72,7.73,21.71,13.53C41.36,37,47.51,42,54.34,37c4.44-3.25,6.35-8.6,12.73-8.54,14.21.09,17.06,23.79,33.71,14.07C107,39,111.09,33.86,119,35c6.5,1,11.77,6.7,17.13,10.06Z" transform="translate(13.22 13.88)"/><path class="cls-3" d="M136.17,43.66c-5.36-3.35-10.64-9.1-17.13-10-8-1.17-12.06,3.92-18.26,7.53C84,50.92,81.36,26.83,67.07,26.75c-6.46,0-8.3,5.46-12.73,8.79-6.85,5.14-13,0-18.07-5.05-5.91-5.87-12-16.2-21.69-13.85C3.44,19.32-5.49,30-13.22,37.83v-5.7c7.8-7.67,16.56-19,27.67-21.81,9.78-2.44,16.19,8.31,22.17,14.17,5,4.89,11.45,10.53,18.21,5.22,4.32-3.39,5.77-8.81,12.23-8.77,14.33.08,16.86,24.34,33.71,14.51,6.22-3.64,10.3-8.66,18.27-7.55,6.58.92,11.78,6.58,17.13,10.07Z" transform="translate(13.22 13.88)"/><path class="cls-3" d="M136.17,36.55c-5.35-3.54-10.52-9.17-17.12-10.08-8-1.09-12,3.92-18.27,7.55C83.91,43.85,81.4,19.58,67.07,19.51c-6.5,0-7.62,5.38-12,8.69-6.84,5.23-13.22-.37-18.29-5.29-6-5.83-12.67-16.74-22.47-14.25C3.27,11.49-5.42,23-13.22,30.7V25C-5.39,17.41,3,5.18,14,2.14,23.86-.57,31.35,11,37.53,16.68c4.92,4.57,11.94,11,18.58,5.55,4-3.33,4.59-8.43,11-8.41,14.34,0,16.83,24.35,33.71,14.5,6.26-3.63,10.28-8.57,18.27-7.56,6.75.85,11.77,6.36,17.12,10.09Z" transform="translate(13.22 13.88)"/><path class="cls-3" d="M136.17,29.43c-5.35-3.79-10.34-9.26-17.12-10.1-8-1-12,3.92-18.27,7.57C83.9,36.75,81.41,12.43,67.07,12.39c-6.37,0-6.85,5.05-10.91,8.39-6.61,5.46-13.69-1-18.59-5.55C31.4,9.51,23.83-2.06,14,.65,3,3.69-5.35,16-13.22,23.59v-5.7C-5.41,10,3.07-2.38,14.23-5.55,24.09-8.36,31.67,3.32,37.86,9.07c4.82,4.48,12,11.09,18.54,5.68,4-3.26,4.41-8.09,10.67-8C81.4,6.78,83.93,31,100.78,21.21c6.28-3.66,10.29-8.58,18.31-7.55,6.84.87,11.73,6.18,17.08,10.07Z" transform="translate(13.22 13.88)"/><path class="cls-3" d="M136.17,22.31c-5.56-4.07-10.39-9.35-17.54-10.12-7.48-.81-11.44,3.45-17.23,7.12C84.61,30,81.41,5.79,67.12,5.42c-6.19-.17-6.41,3.78-10.06,7.2-7,6.52-15.06-1.14-20.17-6.17-5.61-5.54-12.82-16-22-13.81C3.46-4.63-5.43,8.47-13.22,16.47v-5.7C-5.56,2.42,3.54-10.74,15.14-13.57c9.21-2.25,16.4,8.28,22,13.88,5,5,13.15,12.76,20.09,6.33C60.86,3.27,61-.46,67.12-.28c14.29.41,17.49,24.52,34.28,13.9,5.8-3.67,9.77-7.93,17.26-7.11,7.19.8,12,5.92,17.51,10.1Z" transform="translate(13.22 13.88)"/></g><path class="cls-3" d="M94.86,20l-.35,1.26a5.39,5.39,0,0,0-1-.53,3.51,3.51,0,0,0-1.12-.17,2.62,2.62,0,0,0-2.16.94,4,4,0,0,0-.77,2.61V50.76a3.6,3.6,0,0,0,.88,2.76,2.94,2.94,0,0,0,2,.8,3.25,3.25,0,0,0,1.12-.18,4.8,4.8,0,0,0,1-.52l.35,1.26H78.48l.35-1.26a4.8,4.8,0,0,0,1,.52,3.25,3.25,0,0,0,1.12.18,3.29,3.29,0,0,0,1.18-.21,2.11,2.11,0,0,0,1-.77,3.21,3.21,0,0,0,.56-1,4.9,4.9,0,0,0,.21-1.54V24.13a4,4,0,0,0-.77-2.61A2.62,2.62,0,0,0,81,20.58a3.51,3.51,0,0,0-1.12.17,5.39,5.39,0,0,0-1,.53L78.48,20ZM82.73,15.35a4,4,0,1,1,6.76,2.79,4,4,0,0,1-6.76-2.79Z" transform="translate(13.22 13.88)"/><path class="cls-3" d="M99.39,53.62a6.8,6.8,0,0,0,1,.56,3,3,0,0,0,1.18.21,2.55,2.55,0,0,0,1.19-.25,3.12,3.12,0,0,0,1-.8,5.1,5.1,0,0,0,.6-1.08,4.21,4.21,0,0,0,.24-1.57c0-.65.26-.92.77-.83a17.23,17.23,0,0,1,2,.49,15.61,15.61,0,0,1,2-.49c.56-.09.84.18.84.83a4.12,4.12,0,0,0,.8,2.72,2.7,2.7,0,0,0,2.2,1,3.09,3.09,0,0,0,1.15-.21,7,7,0,0,0,1.08-.56l.35,1.33H99ZM110.2,20.09v2.37L109,23.61c-.51.49-1,1-1.6,1.57s-1.09,1.1-1.6,1.64a14.29,14.29,0,0,0-1.19,1.36,4.91,4.91,0,0,0-.91-3.24,2.87,2.87,0,0,0-2.3-1.08,3.44,3.44,0,0,0-1.22.17l-.8.31-.28-1.11A24.78,24.78,0,0,0,104,22.6,20.68,20.68,0,0,0,110.2,20.09Zm-5.58,34.37V22.53l5.58-1.67V55h-5.58Zm5.58-27.54A7.89,7.89,0,0,1,111.45,24a9.9,9.9,0,0,1,2.13-2.2,9,9,0,0,1,2.72-1.36,10.23,10.23,0,0,1,3-.45c3.77,0,6.6,1.06,8.51,3.17a12,12,0,0,1,2.85,8.33c0,.28-.29.67-.87,1.15a5.66,5.66,0,0,1-2,1.08,2.51,2.51,0,0,1-2-.07c-.58-.27-.87-1-.87-2.3a11.56,11.56,0,0,0-1.75-6.83,6.08,6.08,0,0,0-5.29-2.44,7.31,7.31,0,0,0-2.72.56,6.94,6.94,0,0,0-2.51,1.74,8.86,8.86,0,0,0-1.81,3,11.93,11.93,0,0,0-.7,4.32Zm9.62,26.7a6.21,6.21,0,0,0,1.08.56,2.88,2.88,0,0,0,1.08.21,2.77,2.77,0,0,0,1.22-.25,3,3,0,0,0,1-.8,3.68,3.68,0,0,0,.59-1,4.53,4.53,0,0,0,.25-1.61c0-.65.26-.92.8-.83a14.28,14.28,0,0,1,1.92.49,15.16,15.16,0,0,1,2-.49c.58-.09.87.18.87.83a4.29,4.29,0,0,0,.77,2.72,2.59,2.59,0,0,0,2.16,1,3.05,3.05,0,0,0,1.19-.21,7.22,7.22,0,0,0,1-.56l.28,1.33H119.4Zm5.23.84L125,31.38l5.64.14.07,22.17V55h-5.64Z" transform="translate(13.22 13.88)"/><path class="cls-3" d="M140.66,53.62a6.8,6.8,0,0,0,1.05.56,3,3,0,0,0,1.18.21,2.55,2.55,0,0,0,1.19-.25,3.12,3.12,0,0,0,1-.8,5.59,5.59,0,0,0,.6-1.08,4.21,4.21,0,0,0,.24-1.57c0-.65.25-.92.77-.83a17.23,17.23,0,0,1,2,.49,15.61,15.61,0,0,1,2-.49c.56-.09.84.18.84.83a4.12,4.12,0,0,0,.8,2.72,2.68,2.68,0,0,0,2.19,1,3,3,0,0,0,1.15-.21,6.65,6.65,0,0,0,1.09-.56L157,55H140.31ZM151.47,6.08V8.45L150.28,9.6c-.51.49-1,1-1.6,1.57s-1.09,1.1-1.61,1.64a14.17,14.17,0,0,0-1.18,1.36,5,5,0,0,0-.91-3.25,2.87,2.87,0,0,0-2.3-1.08,3.38,3.38,0,0,0-1.22.18l-.8.31-.28-1.11A21,21,0,0,0,146,8.38,22.37,22.37,0,0,0,151.47,6.08ZM140.66,23.16h16v1.46h-16Zm5.23-12.41,5.58-4.67V50.69h-5.58Zm5.58,2.37a7.89,7.89,0,0,1,1.25-2.89A9.48,9.48,0,0,1,154.85,8a8.79,8.79,0,0,1,2.72-1.36,10.23,10.23,0,0,1,3-.45,12.15,12.15,0,0,1,7,1.88,9.31,9.31,0,0,1,3.69,5.16l-4.53,1.81a8.1,8.1,0,0,0-2.19-5.44,6.79,6.79,0,0,0-5.13-2.16,6.33,6.33,0,0,0-2.75.7,8.33,8.33,0,0,0-2.58,2,10.61,10.61,0,0,0-1.88,3.28,12.6,12.6,0,0,0-.73,4.46Z" transform="translate(13.22 13.88)"/><path class="cls-3" d="M174.05,53.62a6.8,6.8,0,0,0,1,.56,3,3,0,0,0,1.18.21,2.55,2.55,0,0,0,1.19-.25,3.26,3.26,0,0,0,1-.8,5.56,5.56,0,0,0,.59-1.08,4.21,4.21,0,0,0,.24-1.57c0-.65.26-.92.77-.83a17.23,17.23,0,0,1,1.95.49,15.61,15.61,0,0,1,2-.49c.56-.09.84.18.84.83a4.12,4.12,0,0,0,.8,2.72,2.7,2.7,0,0,0,2.2,1,3.09,3.09,0,0,0,1.15-.21,7,7,0,0,0,1.08-.56l.35,1.33H173.7ZM184.86,6.08V8.45L183.67,9.6c-.51.49-1,1-1.6,1.57s-1.09,1.1-1.6,1.64a13.15,13.15,0,0,0-1.19,1.36,5,5,0,0,0-.91-3.25,2.87,2.87,0,0,0-2.3-1.08,3.41,3.41,0,0,0-1.22.18l-.8.31-.28-1.11a24.69,24.69,0,0,0,4.88-.63A20.94,20.94,0,0,0,184.86,6.08Zm-5.58,48.38V8.52l5.58-1.67V55h-5.58Z" transform="translate(13.22 13.88)"/><path class="cls-3" d="M204,22.39l-1.19,1.15-1.63,1.57c-.59.56-1.13,1.1-1.64,1.64a15.88,15.88,0,0,0-1.19,1.36,5.09,5.09,0,0,0-.87-3.24,2.78,2.78,0,0,0-2.27-1.08A3.44,3.44,0,0,0,194,24l-.8.31-.28-1.11a24.69,24.69,0,0,0,4.88-.63A20.68,20.68,0,0,0,204,20Zm0-1.88L204,43.58l-5.65-.14-.07-19.93L204,20ZM218.81,48a8,8,0,0,1-1.26,2.9,8.89,8.89,0,0,1-2.12,2.16,10.19,10.19,0,0,1-2.72,1.36,9.72,9.72,0,0,1-3,.49c-3.76,0-6.6-1.06-8.5-3.18a11.94,11.94,0,0,1-2.86-8.33c0-.28.29-.66.87-1.15a6,6,0,0,1,1.95-1.08,2.59,2.59,0,0,1,2,.07c.58.28.87,1,.87,2.3a11.59,11.59,0,0,0,1.74,6.83,6.08,6.08,0,0,0,5.3,2.45,7.19,7.19,0,0,0,2.75-.56,7,7,0,0,0,2.48-1.75,9,9,0,0,0,1.81-3,12.15,12.15,0,0,0,.7-4.32Zm5.57-25.58c-.27.28-.67.66-1.18,1.15s-1,1-1.6,1.57-1.1,1.1-1.61,1.64a15.5,15.5,0,0,0-1.18,1.36,5,5,0,0,0-.91-3.24,2.87,2.87,0,0,0-2.3-1.08,3.4,3.4,0,0,0-1.22.17l-.8.31-.28-1.11a23.8,23.8,0,0,0,4.88-.66,21.49,21.49,0,0,0,6.2-2.55Zm0,32.42h-5.57V25.81L224.38,20Zm-5.57,0V25.81L224.38,20Zm2.72,0v-4.6c.41-.14.8-.28,1.15-.42a5,5,0,0,1,.9-.28.61.61,0,0,1,.59.14,1.33,1.33,0,0,1,.21.9,4.05,4.05,0,0,0,.81,2.9,3,3,0,0,0,2.19.8,3.06,3.06,0,0,0,1.15-.21,7,7,0,0,0,1.08-.56l.35,1.33Z" transform="translate(13.22 13.88)"/><path class="cls-3" d="M238.12,32.92a20.07,20.07,0,0,0,1.43,7.6,22.05,22.05,0,0,0,3.73,6.24A18.93,18.93,0,0,0,248.4,51,11.53,11.53,0,0,0,254,52.58a12.19,12.19,0,0,0,7.39-2.2,10.89,10.89,0,0,0,4-6.59h2.86a15.85,15.85,0,0,1-2.54,4.57,17.53,17.53,0,0,1-3.84,3.55,18.56,18.56,0,0,1-4.77,2.34,17.24,17.24,0,0,1-5.37.84,16.9,16.9,0,0,1-6.83-1.4,17.94,17.94,0,0,1-9.41-9.41,17.36,17.36,0,0,1,0-13.66A17.94,17.94,0,0,1,245,21.21a16.9,16.9,0,0,1,6.83-1.4,20.7,20.7,0,0,1,6.34.91,17,17,0,0,1,5,2.47,13.63,13.63,0,0,1,5.33,8.4c0,.05-.35.07-1,.07h-2.24c-1,0-2.09,0-3.34-.07a10.33,10.33,0,0,0-1.5-4,14.06,14.06,0,0,0-2.75-3.1,11.73,11.73,0,0,0-3.63-2,12.68,12.68,0,0,0-4.11-.7,12,12,0,0,0-4.64.88A11.32,11.32,0,0,0,241.5,25,11.52,11.52,0,0,0,239,28.6,10.45,10.45,0,0,0,238.12,32.92Zm-1.26-2.79h30.6l1,1.46H236.86Z" transform="translate(13.22 13.88)"/><path class="cls-3" d="M273,53.62a6.8,6.8,0,0,0,1,.56,3,3,0,0,0,1.18.21,2.55,2.55,0,0,0,1.19-.25,3.12,3.12,0,0,0,1-.8,5.08,5.08,0,0,0,.59-1.08,4,4,0,0,0,.25-1.57c0-.65.25-.92.77-.83a17.23,17.23,0,0,1,1.95.49,15.61,15.61,0,0,1,2-.49c.56-.09.84.18.84.83a4.12,4.12,0,0,0,.8,2.72,2.68,2.68,0,0,0,2.19,1,3.06,3.06,0,0,0,1.15-.21,6.21,6.21,0,0,0,1.08-.56l.35,1.33H272.62Zm10.81-33.53v2.37l-1.19,1.15c-.51.49-1,1-1.6,1.57s-1.09,1.1-1.61,1.64a15.5,15.5,0,0,0-1.18,1.36,4.91,4.91,0,0,0-.91-3.24,2.87,2.87,0,0,0-2.3-1.08,3.4,3.4,0,0,0-1.22.17l-.8.31-.28-1.11a24.78,24.78,0,0,0,4.88-.63A20.68,20.68,0,0,0,283.78,20.09ZM278.2,54.46V22.53l5.58-1.67V55H278.2Zm5.58-27.54A7.89,7.89,0,0,1,285,24a9.48,9.48,0,0,1,2.13-2.2,9,9,0,0,1,2.72-1.36,10.18,10.18,0,0,1,3-.45c3.76,0,6.6,1.06,8.5,3.17a12,12,0,0,1,2.86,8.33c0,.28-.29.67-.87,1.15a5.66,5.66,0,0,1-1.95,1.08,2.51,2.51,0,0,1-1.95-.07c-.59-.27-.88-1-.88-2.3a11.63,11.63,0,0,0-1.74-6.83,6.09,6.09,0,0,0-5.3-2.44,7.27,7.27,0,0,0-2.71.56,6.86,6.86,0,0,0-2.51,1.74,9,9,0,0,0-1.82,3,12.16,12.16,0,0,0-.69,4.32Zm9.62,26.7a6.21,6.21,0,0,0,1.08.56,2.85,2.85,0,0,0,1.08.21,2.77,2.77,0,0,0,1.22-.25,3,3,0,0,0,1-.8,3.68,3.68,0,0,0,.59-1,4.55,4.55,0,0,0,.24-1.61c0-.65.27-.92.81-.83a13.82,13.82,0,0,1,1.91.49,15.26,15.26,0,0,1,2.06-.49c.58-.09.87.18.87.83a4.29,4.29,0,0,0,.77,2.72,2.59,2.59,0,0,0,2.16,1,3,3,0,0,0,1.18-.21,6.8,6.8,0,0,0,1.05-.56l.28,1.33H293Zm5.22.84-.07-23.08,5.65.14.07,22.17V55h-5.65Z" transform="translate(13.22 13.88)"/><path class="cls-3" d="M321.84,43.79a25.87,25.87,0,0,0,4.29,4.92A16.77,16.77,0,0,0,331,51.77a11.19,11.19,0,0,0,5.06.84,9.71,9.71,0,0,0,4.84-1.71,9.16,9.16,0,0,0,3-3.13,10.78,10.78,0,0,0,1.29-4h2.93a15.85,15.85,0,0,1-2.54,4.57,17.53,17.53,0,0,1-3.84,3.55,18.72,18.72,0,0,1-4.77,2.34,17.24,17.24,0,0,1-5.37.84,16.9,16.9,0,0,1-6.83-1.4,17.94,17.94,0,0,1-9.41-9.41,17.36,17.36,0,0,1,0-13.66,17.94,17.94,0,0,1,9.41-9.41,16.9,16.9,0,0,1,6.83-1.4,16.44,16.44,0,0,1,5.47.91,18,18,0,0,1,8.58,6.2,19.32,19.32,0,0,1,2.61,4.67c.05.1-.34-.18-1.15-.83a13.81,13.81,0,0,0-3.17-1.82,11.73,11.73,0,0,0-1.71-.55,11.19,11.19,0,0,0-1.5-.28c-.56-.05-1.09-.07-1.6-.07a21,21,0,0,0-4-3.49,14.43,14.43,0,0,0-4.25-2,10.64,10.64,0,0,0-4.25-.32,9.81,9.81,0,0,0-4.11,1.61A9.55,9.55,0,0,0,319,27.65a11.26,11.26,0,0,0-1.15,4.88,15.58,15.58,0,0,0,1,5.51A25.77,25.77,0,0,0,321.84,43.79Z" transform="translate(13.22 13.88)"/><path class="cls-3" d="M356.34,32.92a20.26,20.26,0,0,0,1.43,7.6,22.53,22.53,0,0,0,3.73,6.24A19,19,0,0,0,366.63,51a11.53,11.53,0,0,0,5.61,1.57,12.19,12.19,0,0,0,7.39-2.2,10.93,10.93,0,0,0,4-6.59h2.86A15.85,15.85,0,0,1,384,48.36a17.76,17.76,0,0,1-3.84,3.55,18.72,18.72,0,0,1-4.77,2.34,17.24,17.24,0,0,1-5.37.84,16.9,16.9,0,0,1-6.83-1.4,17.94,17.94,0,0,1-9.41-9.41,17.36,17.36,0,0,1,0-13.66,17.94,17.94,0,0,1,9.41-9.41,16.9,16.9,0,0,1,6.83-1.4,20.7,20.7,0,0,1,6.34.91,17,17,0,0,1,5,2.47,13.63,13.63,0,0,1,5.33,8.4c0,.05-.35.07-1.05.07h-2.23c-1,0-2.09,0-3.34-.07a10.33,10.33,0,0,0-1.5-4,13.85,13.85,0,0,0-2.76-3.1,11.68,11.68,0,0,0-3.62-2,12.68,12.68,0,0,0-4.11-.7,12,12,0,0,0-4.64.88,11.4,11.4,0,0,0-6.17,6A10.46,10.46,0,0,0,356.34,32.92Zm-1.25-2.79h30.6l1,1.46H355.09Z" transform="translate(13.22 13.88)"/><path class="cls-3" d="M398.59,53.13a16.2,16.2,0,0,0,4.77-.41,7,7,0,0,0,3.73-2.17,5.47,5.47,0,0,0,1.33-2.47,6.44,6.44,0,0,0,0-2.55,6.6,6.6,0,0,0-1-2.4,7.16,7.16,0,0,0-1.88-1.92,22.24,22.24,0,0,0-2.72-1.56q-1.6-.81-3.24-1.71c-1.09-.61-2.14-1.23-3.14-1.89A8.9,8.9,0,0,1,394.13,34a8.14,8.14,0,0,1-1.78-4.77,10.09,10.09,0,0,1,1-4.88,9.82,9.82,0,0,1,3.2-3.8A8.11,8.11,0,0,1,401.38,19a9.58,9.58,0,0,1,3,.41,17.84,17.84,0,0,1,2.27.91,12.2,12.2,0,0,1,1.88,1.39L406.12,32l-1.33-.56a2.7,2.7,0,0,0,.53-.83c.16-.37.31-.77.45-1.19s.25-.82.35-1.22.16-.71.21-.94a6.42,6.42,0,0,0-.07-2.82,4.55,4.55,0,0,0-2.86-3.17,5.77,5.77,0,0,0-2.16-.42,8.37,8.37,0,0,0-3.63.69,4.54,4.54,0,0,0-2.51,3.07q-.9,3.14.56,5.06a12.18,12.18,0,0,0,3.94,3.24,34.77,34.77,0,0,0,5.16,2.23,13.44,13.44,0,0,1,4.15,2.09,7.21,7.21,0,0,1,2,2.54,8.11,8.11,0,0,1,.8,3.46,11.25,11.25,0,0,1-.73,4,12.31,12.31,0,0,1-2.65,4.15,11.36,11.36,0,0,1-4.18,2.82,15.11,15.11,0,0,1-5.72,1,15.41,15.41,0,0,1-3.35-.32,21.25,21.25,0,0,1-2.37-.66,7.7,7.7,0,0,1-1.88-1l2.37-10,1.39.7a3.38,3.38,0,0,0-.55.84c-.19.37-.36.77-.53,1.18a10.1,10.1,0,0,0-.38,1.19q-.13.55-.21.9a3.9,3.9,0,0,0,.14,2.34,3.42,3.42,0,0,0,1.26,1.5,6,6,0,0,0,2,.83A12.14,12.14,0,0,0,398.59,53.13Z" transform="translate(13.22 13.88)"/><path class="cls-3" d="M86.58,71.83a.41.41,0,0,1,.2.35.31.31,0,0,1-.32.31.66.66,0,0,1-.36-.16,5.1,5.1,0,0,0-3-1,4.63,4.63,0,0,0,.16,9.26,5.5,5.5,0,0,0,3.83-1.72.39.39,0,0,1,.28-.15.3.3,0,0,1,.32.29.45.45,0,0,1-.15.31,6,6,0,0,1-4.3,2A5.19,5.19,0,0,1,77.85,76a5.25,5.25,0,0,1,5.21-5.33A5.64,5.64,0,0,1,86.58,71.83Z" transform="translate(13.22 13.88)"/><path class="cls-3" d="M93.87,80.61c2.24,0,3.43-1.54,3.43-3.74V71.1a.33.33,0,0,1,.36-.35.32.32,0,0,1,.34.35V77a4.13,4.13,0,1,1-8.26,0V71.1a.33.33,0,0,1,.36-.35.33.33,0,0,1,.35.35v5.77C90.45,79.06,91.65,80.61,93.87,80.61Z" transform="translate(13.22 13.88)"/><path class="cls-3" d="M101.73,70.75a.33.33,0,0,1,.36.35v9.76a.36.36,0,0,1-.71,0V71.1A.33.33,0,0,1,101.73,70.75Z" transform="translate(13.22 13.88)"/><path class="cls-3" d="M112.41,71.61c.17.13.28.24.28.38a.33.33,0,0,1-.31.33.81.81,0,0,1-.38-.14,5.89,5.89,0,0,0-3-.83c-2,0-3.1,1-3.1,2.22,0,1.51,1.55,1.87,3.43,2.28s3.63.81,3.63,2.68c0,1.7-1.69,2.76-3.73,2.76a7.4,7.4,0,0,1-4-1.15.39.39,0,0,1-.23-.33.36.36,0,0,1,.31-.39.69.69,0,0,1,.35.12,6.72,6.72,0,0,0,3.58,1.07c1.59,0,3-.69,3-2.08s-1.25-1.63-3.33-2.09c-1.77-.37-3.71-.79-3.71-2.86,0-1.5,1.22-2.92,3.83-2.92A6.44,6.44,0,0,1,112.41,71.61Z" transform="translate(13.22 13.88)"/><path class="cls-3" d="M116.1,70.75a.33.33,0,0,1,.36.35v9.76a.33.33,0,0,1-.36.34.33.33,0,0,1-.34-.34V71.1A.33.33,0,0,1,116.1,70.75Z" transform="translate(13.22 13.88)"/><path class="cls-3" d="M128,81.2h0a.74.74,0,0,1-.65-.42l-6.71-9.06v9.14a.33.33,0,0,1-.36.34.33.33,0,0,1-.34-.34V71.28a.47.47,0,0,1,.45-.53h.07c.26,0,.4.14.59.39l6.73,9V71.1a.33.33,0,0,1,.36-.35.33.33,0,0,1,.34.35v9.62A.44.44,0,0,1,128,81.2Z" transform="translate(13.22 13.88)"/><path class="cls-3" d="M132.87,80.45h5.68c.27,0,.39.11.39.34s-.12.33-.39.33H132.5c-.35,0-.52-.15-.52-.47V71.3c0-.3.17-.47.52-.47h6c.26,0,.41.13.41.34s-.15.33-.4.33h-5.66c-.14,0-.19,0-.19.18v3.9h4.43c.25,0,.39.13.39.35s-.14.33-.39.33h-4.43v4C132.68,80.4,132.73,80.45,132.87,80.45Z" transform="translate(13.22 13.88)"/><path class="cls-3" d="M154.6,71.78l-3.49,4.9c-.14.2-.23.28-.44.28a.48.48,0,0,1-.42-.26l-3.5-4.93h0v9.09a.36.36,0,0,1-.71,0V71.28a.49.49,0,0,1,.49-.53h0a.64.64,0,0,1,.58.38l3.55,5h0l3.55-5c.19-.28.33-.38.58-.38h.05a.48.48,0,0,1,.46.53v9.58a.31.31,0,0,1-.34.34.33.33,0,0,1-.36-.34V71.78Z" transform="translate(13.22 13.88)"/><path class="cls-3" d="M158.18,76a5.31,5.31,0,1,1,5.31,5.31A5.25,5.25,0,0,1,158.18,76Zm9.89,0a4.57,4.57,0,1,0-4.58,4.63A4.53,4.53,0,0,0,168.07,76Z" transform="translate(13.22 13.88)"/><path class="cls-3" d="M171.65,80.65V71.3a.43.43,0,0,1,.47-.47h2.16c3.46,0,5.57,2,5.57,5.13s-2.13,5.16-5.57,5.16h-2.16A.43.43,0,0,1,171.65,80.65Zm.89-.2h1.82c2.81,0,4.75-1.75,4.75-4.49s-2-4.46-4.77-4.46h-1.8c-.14,0-.18,0-.18.18v8.6C172.36,80.4,172.4,80.45,172.54,80.45Z" transform="translate(13.22 13.88)"/><path class="cls-3" d="M183.6,80.45h5.68c.27,0,.39.11.39.34s-.12.33-.39.33h-6.05c-.35,0-.52-.15-.52-.47V71.3c0-.3.17-.47.52-.47h6c.27,0,.41.13.41.34s-.14.33-.39.33H183.6c-.14,0-.18,0-.18.18v3.9h4.42c.25,0,.39.13.39.35s-.14.33-.39.33h-4.42v4C183.42,80.4,183.46,80.45,183.6,80.45Z" transform="translate(13.22 13.88)"/><path class="cls-3" d="M196.31,77.07l3.41,3.5a.43.43,0,0,1,.15.29.35.35,0,0,1-.34.34.45.45,0,0,1-.33-.17l-3.77-3.93H193v3.76a.33.33,0,0,1-.36.34.32.32,0,0,1-.34-.34V71.3a.43.43,0,0,1,.47-.47h3.09c2.44,0,3.63,1.41,3.63,3.14A3.09,3.09,0,0,1,196.31,77.07Zm-.58-.64c2.12,0,3-1.05,3-2.46s-.9-2.47-3-2.47h-2.58c-.14,0-.19,0-.19.18v4.75Z" transform="translate(13.22 13.88)"/><path class="cls-3" d="M210.53,81.2h0a.74.74,0,0,1-.64-.42l-6.71-9.06v9.14a.33.33,0,0,1-.36.34.33.33,0,0,1-.34-.34V71.28a.47.47,0,0,1,.45-.53H203c.27,0,.41.14.6.39l6.73,9V71.1a.35.35,0,0,1,.7,0v9.62A.44.44,0,0,1,210.53,81.2Z" transform="translate(13.22 13.88)"/><path class="cls-3" d="M215.36,80.45H221c.26,0,.39.11.39.34s-.13.33-.39.33h-6c-.35,0-.52-.15-.52-.47V71.3c0-.3.17-.47.52-.47h6c.26,0,.4.13.4.34s-.14.33-.39.33h-5.66c-.14,0-.19,0-.19.18v3.9h4.43c.25,0,.39.13.39.35s-.14.33-.39.33h-4.43v4C215.17,80.4,215.22,80.45,215.36,80.45Z" transform="translate(13.22 13.88)"/></g></g></g></svg>