<svg xmlns="http://www.w3.org/2000/svg" version="1.1" xmlns:xlink="http://www.w3.org/1999/xlink" width="81" height="81"><svg width="81" height="81" viewBox="0 0 81 81" fill="none" xmlns="http://www.w3.org/2000/svg">
<g transform="translate(14, 0)">
<mask id="SvgjsMask1006" style="mask-type:luminance" maskUnits="userSpaceOnUse" x="0" y="0" width="53" height="81">
<path d="M0.000484155 26.6005V80.8405H52.8805V26.2805C52.8595 22.8083 52.1548 19.3743 50.8066 16.1745C49.4585 12.9747 47.4933 10.0718 45.0233 7.63144C42.5532 5.19112 39.6267 3.2612 36.4108 1.95188C33.1949 0.642558 29.7526 -0.0205273 26.2805 0.000484151C22.8083 0.0214957 19.3743 0.726192 16.1745 2.07434C12.9747 3.42249 10.0718 5.38768 7.63144 7.85772C5.19112 10.3278 3.2612 13.2543 1.95188 16.4702C0.642558 19.686 -0.0205274 23.1283 0.000484155 26.6005Z" fill="white"></path>
</mask>
<g mask="url(#mask0_80_87)">
<path d="M136.171 93.3405C130.381 89.1205 125.621 83.6505 118.171 83.2105C111.001 82.8405 107.701 86.3305 102.081 89.9205C85.9005 100.23 81.5305 80.0105 67.0805 79.7105C61.5605 79.6005 59.1505 83.1205 54.8505 85.6105C49.0005 89.0105 41.6905 87.1305 35.4905 85.7105C27.4841 83.9066 19.3711 82.614 11.2005 81.8405C0.850517 80.8405 -5.28948 79.8405 -13.2195 87.5005V81.8405C0.130518 69.5005 19.7805 74.9505 35.5305 79.5905C41.7605 81.4205 48.8705 83.3105 54.9205 80.0105C59.3005 77.6105 61.9805 74.1305 67.4805 74.2605C81.8305 74.5905 86.0105 94.5105 102.081 84.2605C107.701 80.6805 111.011 77.0905 118.161 77.5605C125.571 78.0505 130.391 83.5605 136.161 87.6705L136.171 93.3405Z" fill="#000078"></path>
<path d="M136.171 86.2205C130.901 82.4705 126.171 77.1605 119.471 76.2205C111.401 75.0205 107.611 79.4605 101.471 83.3005C86.1305 92.8405 81.3105 73.4405 67.6605 72.9805C61.7905 72.7805 59.4005 76.2805 54.6605 78.6805C48.8805 81.6205 42.4705 80.0605 36.5405 78.2405C20.0805 73.1805 1.00052 67.4105 -13.2195 80.3805V74.6805C2.14052 61.2805 19.2905 65.6805 36.6205 72.1405C42.6205 74.3405 48.8305 75.8905 54.7705 73.0305C59.5705 70.7105 62.2205 67.2705 68.0705 67.4805C81.6005 67.9705 86.2205 87.0505 101.451 77.5605C107.601 73.7205 111.451 69.2305 119.451 70.5005C126.061 71.5005 130.861 76.8605 136.131 80.5005L136.171 86.2205Z" fill="#000078"></path>
<path d="M136.171 79.1005C130.811 75.4005 125.791 69.9305 119.071 69.0305C111.071 67.9605 107.071 72.9405 100.781 76.5805C85.7205 85.3605 81.3805 66.3305 68.0505 65.9605C62.3205 65.8005 59.2905 69.5605 54.5405 71.7705C48.2605 74.6805 41.7305 72.6105 35.6305 70.2805C18.5605 63.7605 1.92052 60.3605 -13.2195 73.2805V67.5605C-5.21948 60.9805 3.15052 57.2005 13.5705 56.6305C22.2105 56.1605 28.4405 60.2305 35.9105 63.8405C41.9105 66.7305 48.1405 69.0505 54.5405 66.0705C59.2905 63.8605 62.3205 60.0705 68.0505 60.2605C81.3905 60.6405 85.7305 79.6505 100.781 70.8405C107.011 67.2105 111.081 62.1905 119.061 63.3105C125.701 64.2405 130.811 69.8005 136.171 73.3705V79.1005Z" fill="#000078"></path>
<path d="M136.161 71.9805C130.791 68.4405 125.671 62.8605 119.051 61.9205C111.071 60.8405 107.001 65.8405 100.771 69.4505C85.7105 78.2405 81.3705 59.2105 68.0505 58.8405C62.3205 58.6805 59.3005 62.4405 54.5505 64.6505C48.0905 67.6505 41.9505 65.2505 36.0005 62.2005C28.6205 58.4305 22.4705 54.0305 13.7805 54.6405C3.34052 55.3805 -5.21948 59.6405 -13.2195 66.1405V60.4505C-5.04948 53.9805 4.08052 48.5705 14.7805 47.7705C22.8805 47.1605 28.6205 51.5405 35.1905 55.5905C41.7605 59.6405 48.1905 62.2305 55.3705 58.5305C59.8905 56.1805 62.4305 53.0305 68.0705 53.2405C81.4305 53.7405 86.3305 72.8405 101.401 63.3005C107.131 59.6705 111.191 55.3005 118.611 56.1905C125.481 57.0305 130.611 62.7105 136.171 66.2905L136.161 71.9805Z" fill="#000078"></path>
<path d="M136.171 64.8405C130.591 61.2605 125.471 55.5905 118.611 54.7405C111.191 53.8405 107.131 58.2405 101.401 61.8405C86.3205 71.3905 81.4005 52.2305 67.9405 51.7405C62.2905 51.5305 59.8105 54.7405 55.3005 57.0605C48.1605 60.8205 41.5205 58.0605 35.1405 54.0005C28.6005 49.8505 22.8805 45.3205 14.7205 46.0005C4.05052 46.8405 -5.08948 52.5005 -13.2195 59.0005V53.3305C-5.42948 46.3905 3.49052 39.5705 14.1505 38.0805C23.2805 36.8105 29.2305 43.2805 36.1505 48.0805C41.7705 52.0105 47.7605 55.1905 54.4305 51.7705C59.0305 49.4105 61.6205 45.5605 67.3705 45.6805C80.9205 45.9705 85.5805 65.5405 100.821 56.6805C107.031 53.0705 111.131 47.9905 119.091 49.1505C125.631 50.1505 130.841 55.7905 136.211 59.2105L136.171 64.8405Z" fill="#000078"></path>
<path d="M136.161 57.7405C130.791 54.3305 125.581 48.6405 119.041 47.7405C111.041 46.5705 106.971 51.6505 100.771 55.2705C85.5005 64.1705 80.7705 44.5005 67.1905 44.2705C61.4405 44.1605 58.9205 48.0305 54.3505 50.4105C47.6605 53.9005 41.6905 50.5805 36.1005 46.5605C29.2905 41.6605 23.3205 34.8905 14.1005 36.2505C3.44052 37.7505 -5.47948 44.8405 -13.2195 51.9005V46.2105C-5.52948 39.0705 3.42052 30.9705 14.2105 29.2705C23.6305 27.8405 29.4605 35.1905 36.1305 40.4305C41.5705 44.7005 47.6205 48.3205 54.3405 44.5605C58.9405 41.9905 61.1505 37.8805 67.0705 37.9905C80.8005 38.2605 85.2505 58.5705 100.781 49.5205C106.981 45.9105 111.101 40.8305 119.051 41.9905C125.561 42.9905 130.811 48.6605 136.171 52.0505L136.161 57.7405Z" fill="#000078"></path>
<path d="M136.171 50.6205C130.801 47.2405 125.551 41.5205 119.041 40.5605C111.041 39.4005 106.981 44.4805 100.781 48.1005C85.0005 57.2705 80.9005 36.3505 67.0705 36.1205C61.0705 36.0105 58.9305 40.3505 54.3405 43.0405C47.5805 47.0405 41.5405 43.1705 36.1605 38.7605C29.6005 33.4005 23.7405 25.5405 14.2705 27.1705C3.43052 29.0205 -5.52948 37.5605 -13.2195 44.8405V39.1405C-5.50948 31.4005 3.43052 21.0305 14.5405 18.4305C24.2105 16.1805 30.2605 26.1605 36.2505 31.9605C41.3605 36.8405 47.5105 41.8405 54.3405 36.8405C58.7805 33.5905 60.6905 28.2405 67.0705 28.3005C81.2805 28.3905 84.1305 52.0905 100.781 42.3705C107.001 38.8405 111.091 33.7005 119.001 34.8405C125.501 35.8405 130.771 41.5405 136.131 44.9005L136.171 50.6205Z" fill="#000078"></path>
<path d="M136.171 43.5005C130.811 40.1505 125.531 34.4005 119.041 33.5005C111.041 32.3305 106.981 37.4205 100.781 41.0305C84.0005 50.7605 81.3605 26.6705 67.0705 26.5905C60.6105 26.5905 58.7705 32.0505 54.3405 35.3805C47.4905 40.5205 41.3405 35.3805 36.2705 30.3305C30.3605 24.4605 24.2705 14.1305 14.5805 16.4805C3.44052 19.1605 -5.48948 29.8405 -13.2195 37.6705V31.9705C-5.41948 24.3005 3.34052 12.9705 14.4505 10.1605C24.2305 7.72049 30.6405 18.4705 36.6205 24.3305C41.6205 29.2205 48.0705 34.8605 54.8305 29.5505C59.1505 26.1605 60.6005 20.7405 67.0605 20.7805C81.3905 20.8605 83.9205 45.1205 100.771 35.2905C106.991 31.6505 111.071 26.6305 119.041 27.7405C125.621 28.6605 130.821 34.3205 136.171 37.8105V43.5005Z" fill="#000078"></path>
<path d="M136.171 36.3905C130.821 32.8505 125.651 27.2205 119.051 26.3105C111.051 25.2205 107.051 30.2305 100.781 33.8605C83.9105 43.6905 81.4005 19.4205 67.0705 19.3505C60.5705 19.3505 59.4505 24.7305 55.0705 28.0405C48.2305 33.2705 41.8505 27.6705 36.7805 22.7505C30.7805 16.9205 24.1105 6.01049 14.3105 8.50049C3.27052 11.3305 -5.41948 22.8405 -13.2195 30.5405V24.8405C-5.38948 17.2505 3.00052 5.02049 14.0005 1.98049C23.8605 -0.729509 31.3505 10.8405 37.5305 16.5205C42.4505 21.0905 49.4705 27.5205 56.1105 22.0705C60.1105 18.7405 60.7005 13.6405 67.1105 13.6605C81.4505 13.6605 83.9405 38.0105 100.821 28.1605C107.081 24.5305 111.101 19.5905 119.091 20.6005C125.841 21.4505 130.861 26.9605 136.211 30.6905L136.171 36.3905Z" fill="#000078"></path>
<path d="M136.171 29.2705C130.821 25.4805 125.831 20.0105 119.051 19.1705C111.051 18.1705 107.051 23.0905 100.781 26.7405C83.9005 36.5905 81.4105 12.2705 67.0705 12.2305C60.7005 12.2305 60.2205 17.2805 56.1605 20.6205C49.5505 26.0805 42.4705 19.6205 37.5705 15.0705C31.4005 9.3505 23.8305 -2.2195 14.0005 0.490498C3.00052 3.5305 -5.34948 15.8405 -13.2195 23.4305V17.7305C-5.40948 9.8405 3.07052 -2.5395 14.2305 -5.7095C24.0905 -8.5195 31.6705 3.1605 37.8605 8.9105C42.6805 13.3905 49.8605 20.0005 56.4005 14.5905C60.4005 11.3305 60.8105 6.5005 67.0705 6.5905C81.4005 6.6205 83.9305 30.8405 100.781 21.0505C107.061 17.3905 111.071 12.4705 119.091 13.5005C125.931 14.3705 130.821 19.6805 136.171 23.5705V29.2705Z" fill="#000078"></path>
<path d="M136.171 22.1505C130.611 18.0805 125.781 12.8005 118.631 12.0305C111.151 11.2205 107.191 15.4805 101.401 19.1505C84.6105 29.8405 81.4105 5.63049 67.1205 5.26049C60.9305 5.09049 60.7105 9.04049 57.0605 12.4605C50.0605 18.9805 42.0005 11.3205 36.8905 6.29049C31.2805 0.750491 24.0705 -9.70951 14.8905 -7.51951C3.46052 -4.78951 -5.42948 8.31049 -13.2195 16.3105V10.6105C-5.55948 2.26049 3.54052 -10.8995 15.1405 -13.7295C24.3505 -15.9795 31.5405 -5.44951 37.1405 0.150491C42.1405 5.15049 50.2905 12.9105 57.2305 6.48049C60.8605 3.11049 61.0005 -0.619509 67.1205 -0.439509C81.4105 -0.0295094 84.6105 24.0805 101.401 13.4605C107.201 9.79049 111.171 5.53049 118.661 6.35049C125.851 7.15049 130.661 12.2705 136.171 16.4505V22.1505Z" fill="#000078"></path>
</g>
</g>
</svg><style>@media (prefers-color-scheme: light) { :root { filter: none; } }
@media (prefers-color-scheme: dark) { :root { filter: none; } }
</style></svg>